<mxfile host="app.diagrams.net" modified="2022-08-23T03:37:43.432Z" agent="5.0 (Windows NT 10.0; Win64; x64) AppleWebKit/537.36 (KHTML, like Gecko) Chrome/72.0.3626.119 Safari/537.36" etag="E2cM5RngJxKW5Pmp0wE0" version="20.2.4" type="github">
  <diagram id="PbEHLwvle0bfFOzdE0RF" name="第 1 页">
    <mxGraphModel dx="1422" dy="762" grid="0" gridSize="10" guides="1" tooltips="1" connect="1" arrows="1" fold="1" page="0" pageScale="1" pageWidth="827" pageHeight="1169" math="0" shadow="0">
      <root>
        <mxCell id="0" />
        <mxCell id="1" parent="0" />
        <mxCell id="bQanzyuvM3PR-ToL9I3--1" value="" style="rounded=0;whiteSpace=wrap;html=1;" parent="1" vertex="1">
          <mxGeometry x="220" y="90" width="990" height="960" as="geometry" />
        </mxCell>
        <mxCell id="bQanzyuvM3PR-ToL9I3--2" value="微信财富公众号系统" style="rounded=0;whiteSpace=wrap;html=1;fillColor=#CFCEF5;strokeColor=#9673a6;fontStyle=1;fontSize=16;" parent="1" vertex="1">
          <mxGeometry x="200" y="90" width="1180" height="30" as="geometry" />
        </mxCell>
        <mxCell id="bQanzyuvM3PR-ToL9I3--3" value="" style="rounded=0;whiteSpace=wrap;html=1;fontSize=16;fillColor=#eeeeee;strokeColor=#36393d;" parent="1" vertex="1">
          <mxGeometry x="220" y="120" width="990" height="60" as="geometry" />
        </mxCell>
        <mxCell id="bQanzyuvM3PR-ToL9I3--5" value="公募基金" style="rounded=1;whiteSpace=wrap;html=1;fontSize=16;" parent="1" vertex="1">
          <mxGeometry x="385" y="130" width="220" height="40" as="geometry" />
        </mxCell>
        <mxCell id="bQanzyuvM3PR-ToL9I3--6" value="私募基金" style="rounded=1;whiteSpace=wrap;html=1;fontSize=16;" parent="1" vertex="1">
          <mxGeometry x="670" y="130" width="220" height="40" as="geometry" />
        </mxCell>
        <mxCell id="bQanzyuvM3PR-ToL9I3--8" value="" style="rounded=0;whiteSpace=wrap;html=1;fontSize=16;fillColor=#eeeeee;strokeColor=#36393d;" parent="1" vertex="1">
          <mxGeometry x="370" y="880" width="840" height="170" as="geometry" />
        </mxCell>
        <mxCell id="bQanzyuvM3PR-ToL9I3--24" value="" style="rounded=0;whiteSpace=wrap;html=1;fontSize=16;fillColor=#f5f5f5;strokeColor=#666666;fontColor=#333333;" parent="1" vertex="1">
          <mxGeometry x="200" y="120" width="170" height="930" as="geometry" />
        </mxCell>
        <mxCell id="bQanzyuvM3PR-ToL9I3--25" value="三方服务" style="rounded=0;whiteSpace=wrap;html=1;fontSize=16;fillColor=#CFCEF5;" parent="1" vertex="1">
          <mxGeometry x="210" y="135" width="150" height="30" as="geometry" />
        </mxCell>
        <mxCell id="bQanzyuvM3PR-ToL9I3--26" value="电子签章" style="rounded=1;whiteSpace=wrap;html=1;fontSize=13;" parent="1" vertex="1">
          <mxGeometry x="218" y="191" width="130" height="40" as="geometry" />
        </mxCell>
        <mxCell id="bQanzyuvM3PR-ToL9I3--27" value="人脸识别" style="rounded=1;whiteSpace=wrap;html=1;fontSize=13;" parent="1" vertex="1">
          <mxGeometry x="218" y="249" width="130" height="40" as="geometry" />
        </mxCell>
        <mxCell id="bQanzyuvM3PR-ToL9I3--28" value="OCR识别" style="rounded=1;whiteSpace=wrap;html=1;fontSize=13;" parent="1" vertex="1">
          <mxGeometry x="218" y="310" width="130" height="40" as="geometry" />
        </mxCell>
        <mxCell id="bQanzyuvM3PR-ToL9I3--45" value="" style="rounded=0;whiteSpace=wrap;html=1;fontSize=13;fillColor=#f5f5f5;strokeColor=#666666;fontColor=#333333;" parent="1" vertex="1">
          <mxGeometry x="387.5" y="185" width="235" height="650" as="geometry" />
        </mxCell>
        <mxCell id="bQanzyuvM3PR-ToL9I3--34" value="人员管理" style="rounded=1;whiteSpace=wrap;html=1;fontSize=13;fillColor=#dae8fc;strokeColor=#6c8ebf;gradientColor=#7ea6e0;" parent="1" vertex="1">
          <mxGeometry x="444.5" y="197.5" width="116" height="39" as="geometry" />
        </mxCell>
        <mxCell id="bQanzyuvM3PR-ToL9I3--35" value="车辆管理" style="rounded=1;whiteSpace=wrap;html=1;fontSize=13;fillColor=#dae8fc;strokeColor=#6c8ebf;gradientColor=#7ea6e0;" parent="1" vertex="1">
          <mxGeometry x="444.5" y="253.5" width="116" height="41" as="geometry" />
        </mxCell>
        <mxCell id="bQanzyuvM3PR-ToL9I3--36" value="发票管理" style="rounded=1;whiteSpace=wrap;html=1;fontSize=13;fillColor=#dae8fc;strokeColor=#6c8ebf;gradientColor=#7ea6e0;" parent="1" vertex="1">
          <mxGeometry x="444.5" y="314.5" width="116" height="40" as="geometry" />
        </mxCell>
        <mxCell id="bQanzyuvM3PR-ToL9I3--37" value="营收管理" style="rounded=1;whiteSpace=wrap;html=1;fontSize=13;fillColor=#dae8fc;strokeColor=#6c8ebf;gradientColor=#7ea6e0;" parent="1" vertex="1">
          <mxGeometry x="444.5" y="374.5" width="116" height="40" as="geometry" />
        </mxCell>
        <mxCell id="bQanzyuvM3PR-ToL9I3--38" value="排班管理" style="rounded=1;whiteSpace=wrap;html=1;fontSize=13;fillColor=#dae8fc;strokeColor=#6c8ebf;gradientColor=#7ea6e0;" parent="1" vertex="1">
          <mxGeometry x="444.5" y="434.5" width="116" height="40" as="geometry" />
        </mxCell>
        <mxCell id="bQanzyuvM3PR-ToL9I3--39" value="权限管理" style="rounded=1;whiteSpace=wrap;html=1;fontSize=13;fillColor=#dae8fc;strokeColor=#6c8ebf;gradientColor=#7ea6e0;" parent="1" vertex="1">
          <mxGeometry x="444.5" y="494.5" width="116" height="40" as="geometry" />
        </mxCell>
        <mxCell id="bQanzyuvM3PR-ToL9I3--47" value="" style="rounded=0;whiteSpace=wrap;html=1;fontSize=13;fillColor=#f5f5f5;strokeColor=#666666;fontColor=#333333;" parent="1" vertex="1">
          <mxGeometry x="662.5" y="190" width="235" height="650" as="geometry" />
        </mxCell>
        <mxCell id="bQanzyuvM3PR-ToL9I3--48" value="报价" style="rounded=1;whiteSpace=wrap;html=1;fontSize=13;fillColor=#dae8fc;strokeColor=#6c8ebf;gradientColor=#7ea6e0;" parent="1" vertex="1">
          <mxGeometry x="670" y="196.5" width="108" height="34.5" as="geometry" />
        </mxCell>
        <mxCell id="bQanzyuvM3PR-ToL9I3--49" value="预定信息" style="rounded=1;whiteSpace=wrap;html=1;fontSize=13;fillColor=#dae8fc;strokeColor=#6c8ebf;gradientColor=#7ea6e0;" parent="1" vertex="1">
          <mxGeometry x="670" y="248" width="108" height="34.5" as="geometry" />
        </mxCell>
        <mxCell id="bQanzyuvM3PR-ToL9I3--50" value="确认调派" style="rounded=1;whiteSpace=wrap;html=1;fontSize=13;fillColor=#dae8fc;strokeColor=#6c8ebf;gradientColor=#7ea6e0;" parent="1" vertex="1">
          <mxGeometry x="670" y="299" width="108" height="34.5" as="geometry" />
        </mxCell>
        <mxCell id="bQanzyuvM3PR-ToL9I3--51" value="应急预案" style="rounded=1;whiteSpace=wrap;html=1;fontSize=13;fillColor=#dae8fc;strokeColor=#6c8ebf;gradientColor=#7ea6e0;" parent="1" vertex="1">
          <mxGeometry x="670" y="353.5" width="108" height="34.5" as="geometry" />
        </mxCell>
        <mxCell id="bQanzyuvM3PR-ToL9I3--52" value="付款开票" style="rounded=1;whiteSpace=wrap;html=1;fontSize=13;fillColor=#dae8fc;strokeColor=#6c8ebf;gradientColor=#7ea6e0;" parent="1" vertex="1">
          <mxGeometry x="670" y="459" width="108" height="34.5" as="geometry" />
        </mxCell>
        <mxCell id="bQanzyuvM3PR-ToL9I3--53" value="确认应收账款" style="rounded=1;whiteSpace=wrap;html=1;fontSize=13;fillColor=#dae8fc;strokeColor=#6c8ebf;gradientColor=#7ea6e0;" parent="1" vertex="1">
          <mxGeometry x="670" y="509" width="108" height="34.5" as="geometry" />
        </mxCell>
        <mxCell id="bQanzyuvM3PR-ToL9I3--56" value="合同" style="rounded=1;whiteSpace=wrap;html=1;fontSize=13;fillColor=#dae8fc;strokeColor=#6c8ebf;gradientColor=#7ea6e0;" parent="1" vertex="1">
          <mxGeometry x="670" y="609" width="108" height="34.5" as="geometry" />
        </mxCell>
        <mxCell id="bQanzyuvM3PR-ToL9I3--57" value="订单执行" style="rounded=1;whiteSpace=wrap;html=1;fontSize=13;fillColor=#dae8fc;strokeColor=#6c8ebf;gradientColor=#7ea6e0;" parent="1" vertex="1">
          <mxGeometry x="670" y="406.75" width="108" height="34.5" as="geometry" />
        </mxCell>
        <mxCell id="bQanzyuvM3PR-ToL9I3--58" value="执行" style="rounded=1;whiteSpace=wrap;html=1;fontSize=13;fillColor=#dae8fc;strokeColor=#6c8ebf;gradientColor=#7ea6e0;" parent="1" vertex="1">
          <mxGeometry x="782" y="196.5" width="108" height="34.5" as="geometry" />
        </mxCell>
        <mxCell id="bQanzyuvM3PR-ToL9I3--59" value="客户回访" style="rounded=1;whiteSpace=wrap;html=1;fontSize=13;fillColor=#dae8fc;strokeColor=#6c8ebf;gradientColor=#7ea6e0;" parent="1" vertex="1">
          <mxGeometry x="782" y="248" width="108" height="34.5" as="geometry" />
        </mxCell>
        <mxCell id="bQanzyuvM3PR-ToL9I3--60" value="业务预订" style="rounded=1;whiteSpace=wrap;html=1;fontSize=13;fillColor=#dae8fc;strokeColor=#6c8ebf;gradientColor=#7ea6e0;" parent="1" vertex="1">
          <mxGeometry x="782" y="299" width="108" height="34.5" as="geometry" />
        </mxCell>
        <mxCell id="bQanzyuvM3PR-ToL9I3--61" value="业务审批" style="rounded=1;whiteSpace=wrap;html=1;fontSize=13;fillColor=#dae8fc;strokeColor=#6c8ebf;gradientColor=#7ea6e0;" parent="1" vertex="1">
          <mxGeometry x="782" y="353.5" width="108" height="34.5" as="geometry" />
        </mxCell>
        <mxCell id="bQanzyuvM3PR-ToL9I3--62" value="业务结算" style="rounded=1;whiteSpace=wrap;html=1;fontSize=13;fillColor=#dae8fc;strokeColor=#6c8ebf;gradientColor=#7ea6e0;" parent="1" vertex="1">
          <mxGeometry x="782" y="406.75" width="108" height="34.5" as="geometry" />
        </mxCell>
        <mxCell id="bQanzyuvM3PR-ToL9I3--63" value="国宾业务申请" style="rounded=1;whiteSpace=wrap;html=1;fontSize=13;fillColor=#f8cecc;strokeColor=#b85450;gradientColor=#ea6b66;" parent="1" vertex="1">
          <mxGeometry x="782" y="459" width="108" height="34.5" as="geometry" />
        </mxCell>
        <mxCell id="bQanzyuvM3PR-ToL9I3--64" value="驾驶员APP" style="rounded=1;whiteSpace=wrap;html=1;fontSize=13;fillColor=#dae8fc;strokeColor=#6c8ebf;gradientColor=#7ea6e0;" parent="1" vertex="1">
          <mxGeometry x="782" y="509" width="108" height="34.5" as="geometry" />
        </mxCell>
        <mxCell id="bQanzyuvM3PR-ToL9I3--65" value="业务查询　" style="rounded=1;whiteSpace=wrap;html=1;fontSize=13;fillColor=#dae8fc;strokeColor=#6c8ebf;gradientColor=#7ea6e0;" parent="1" vertex="1">
          <mxGeometry x="782" y="560" width="108" height="34.5" as="geometry" />
        </mxCell>
        <mxCell id="bQanzyuvM3PR-ToL9I3--78" value="客户端" style="rounded=1;whiteSpace=wrap;html=1;fontSize=13;fillColor=#dae8fc;strokeColor=#6c8ebf;gradientColor=#7ea6e0;" parent="1" vertex="1">
          <mxGeometry x="670" y="560" width="108" height="34.5" as="geometry" />
        </mxCell>
        <mxCell id="bQanzyuvM3PR-ToL9I3--96" value="基础服务" style="rounded=0;whiteSpace=wrap;html=1;fillColor=#cce5ff;strokeColor=#36393d;fontStyle=1;fontSize=16;" parent="1" vertex="1">
          <mxGeometry x="370" y="850" width="840" height="30" as="geometry" />
        </mxCell>
        <mxCell id="bQanzyuvM3PR-ToL9I3--101" value="驾驶员管理" style="rounded=0;whiteSpace=wrap;html=1;fontSize=13;fillColor=#f8cecc;strokeColor=#b85450;" parent="1" vertex="1">
          <mxGeometry x="392.5" y="890" width="106.5" height="31" as="geometry" />
        </mxCell>
        <mxCell id="bQanzyuvM3PR-ToL9I3--102" value="&lt;span style=&quot;font-size: 16px&quot;&gt;停车场管理&lt;/span&gt;" style="rounded=0;whiteSpace=wrap;html=1;fontSize=13;fillColor=#f8cecc;strokeColor=#b85450;" parent="1" vertex="1">
          <mxGeometry x="804" y="890" width="124" height="31" as="geometry" />
        </mxCell>
        <mxCell id="bQanzyuvM3PR-ToL9I3--104" value="驾驶员管理" style="rounded=1;whiteSpace=wrap;html=1;fontSize=13;" parent="1" vertex="1">
          <mxGeometry x="392.5" y="931" width="50" height="30" as="geometry" />
        </mxCell>
        <mxCell id="bQanzyuvM3PR-ToL9I3--105" value="合同管理" style="rounded=1;whiteSpace=wrap;html=1;fontSize=13;" parent="1" vertex="1">
          <mxGeometry x="449" y="931" width="50" height="30" as="geometry" />
        </mxCell>
        <mxCell id="bQanzyuvM3PR-ToL9I3--106" value="事故违章" style="rounded=1;whiteSpace=wrap;html=1;fontSize=13;" parent="1" vertex="1">
          <mxGeometry x="392.5" y="970" width="50" height="30" as="geometry" />
        </mxCell>
        <mxCell id="bQanzyuvM3PR-ToL9I3--107" value="停车场管理" style="rounded=1;whiteSpace=wrap;html=1;fontSize=13;" parent="1" vertex="1">
          <mxGeometry x="804" y="931" width="50" height="30" as="geometry" />
        </mxCell>
        <mxCell id="bQanzyuvM3PR-ToL9I3--110" value="失物处理" style="rounded=1;whiteSpace=wrap;html=1;fontSize=13;" parent="1" vertex="1">
          <mxGeometry x="948.5" y="974" width="50" height="30" as="geometry" />
        </mxCell>
        <mxCell id="bQanzyuvM3PR-ToL9I3--111" value="投诉回访" style="rounded=1;whiteSpace=wrap;html=1;fontSize=13;" parent="1" vertex="1">
          <mxGeometry x="1020" y="974" width="50" height="30" as="geometry" />
        </mxCell>
        <mxCell id="bQanzyuvM3PR-ToL9I3--112" value="乘客满意度" style="rounded=1;whiteSpace=wrap;html=1;fontSize=13;" parent="1" vertex="1">
          <mxGeometry x="948.5" y="1016" width="50" height="30" as="geometry" />
        </mxCell>
        <mxCell id="bQanzyuvM3PR-ToL9I3--113" value="督导检查" style="rounded=1;whiteSpace=wrap;html=1;fontSize=13;" parent="1" vertex="1">
          <mxGeometry x="1020" y="1016" width="50" height="30" as="geometry" />
        </mxCell>
        <mxCell id="bQanzyuvM3PR-ToL9I3--114" value="&lt;span style=&quot;font-size: 16px&quot;&gt;车辆管理&lt;/span&gt;" style="rounded=0;whiteSpace=wrap;html=1;fontSize=13;fillColor=#f8cecc;strokeColor=#b85450;" parent="1" vertex="1">
          <mxGeometry x="518" y="890" width="108" height="31" as="geometry" />
        </mxCell>
        <mxCell id="bQanzyuvM3PR-ToL9I3--115" value="车辆基础管理" style="rounded=1;whiteSpace=wrap;html=1;fontSize=13;" parent="1" vertex="1">
          <mxGeometry x="518" y="931" width="50" height="30" as="geometry" />
        </mxCell>
        <mxCell id="bQanzyuvM3PR-ToL9I3--116" value="车辆使用管理" style="rounded=1;whiteSpace=wrap;html=1;fontSize=13;" parent="1" vertex="1">
          <mxGeometry x="576" y="931" width="50" height="30" as="geometry" />
        </mxCell>
        <mxCell id="bQanzyuvM3PR-ToL9I3--117" value="能耗管理" style="rounded=1;whiteSpace=wrap;html=1;fontSize=13;" parent="1" vertex="1">
          <mxGeometry x="518" y="970" width="50" height="30" as="geometry" />
        </mxCell>
        <mxCell id="bQanzyuvM3PR-ToL9I3--118" value="车辆维修" style="rounded=1;whiteSpace=wrap;html=1;fontSize=13;" parent="1" vertex="1">
          <mxGeometry x="576" y="970" width="50" height="30" as="geometry" />
        </mxCell>
        <mxCell id="bQanzyuvM3PR-ToL9I3--119" value="车辆实时数据" style="rounded=1;whiteSpace=wrap;html=1;fontSize=13;" parent="1" vertex="1">
          <mxGeometry x="518" y="1010" width="50" height="30" as="geometry" />
        </mxCell>
        <mxCell id="bQanzyuvM3PR-ToL9I3--128" value="&lt;span style=&quot;font-size: 16px&quot;&gt;服务质量&lt;/span&gt;" style="rounded=0;whiteSpace=wrap;html=1;fontSize=13;fillColor=#f8cecc;strokeColor=#b85450;" parent="1" vertex="1">
          <mxGeometry x="949.5" y="890" width="123.5" height="31" as="geometry" />
        </mxCell>
        <mxCell id="bQanzyuvM3PR-ToL9I3--129" value="服务质量管理" style="rounded=1;whiteSpace=wrap;html=1;fontSize=13;" parent="1" vertex="1">
          <mxGeometry x="949.5" y="931" width="50" height="30" as="geometry" />
        </mxCell>
        <mxCell id="bQanzyuvM3PR-ToL9I3--130" value="投诉处理" style="rounded=1;whiteSpace=wrap;html=1;fontSize=13;" parent="1" vertex="1">
          <mxGeometry x="1020" y="931" width="50" height="30" as="geometry" />
        </mxCell>
        <mxCell id="bQanzyuvM3PR-ToL9I3--132" value="&lt;span style=&quot;font-size: 16px&quot;&gt;权限角色管理&lt;/span&gt;" style="rounded=0;whiteSpace=wrap;html=1;fontSize=13;fillColor=#f8cecc;strokeColor=#b85450;" parent="1" vertex="1">
          <mxGeometry x="1095" y="890" width="107" height="31" as="geometry" />
        </mxCell>
        <mxCell id="bQanzyuvM3PR-ToL9I3--133" value="用户管理" style="rounded=1;whiteSpace=wrap;html=1;fontSize=13;" parent="1" vertex="1">
          <mxGeometry x="1095" y="931" width="50" height="30" as="geometry" />
        </mxCell>
        <mxCell id="bQanzyuvM3PR-ToL9I3--134" value="" style="rounded=0;whiteSpace=wrap;html=1;fontSize=13;fillColor=#f5f5f5;fontColor=#333333;strokeColor=#666666;" parent="1" vertex="1">
          <mxGeometry x="1210" y="120" width="170" height="930" as="geometry" />
        </mxCell>
        <mxCell id="bQanzyuvM3PR-ToL9I3--135" value="辅助服务" style="rounded=0;whiteSpace=wrap;html=1;fontSize=16;fillColor=#CFCEF5;" parent="1" vertex="1">
          <mxGeometry x="1220" y="130" width="150" height="30" as="geometry" />
        </mxCell>
        <mxCell id="ZADM2jKMoyXwHcdbe6bZ-1" value="&lt;p class=&quot;MsoNormal&quot; style=&quot;font-size: 13px;&quot;&gt;&lt;span style=&quot;font-size: 13px;&quot;&gt;&lt;font style=&quot;font-size: 13px;&quot;&gt;工作流引擎&lt;/font&gt;&lt;/span&gt;&lt;/p&gt;" style="rounded=1;whiteSpace=wrap;html=1;fontSize=13;fontFamily=Verdana;" parent="1" vertex="1">
          <mxGeometry x="1228" y="191" width="130" height="40" as="geometry" />
        </mxCell>
        <mxCell id="ZADM2jKMoyXwHcdbe6bZ-2" value="&lt;p class=&quot;MsoNormal&quot; style=&quot;font-size: 13px;&quot;&gt;&lt;span style=&quot;font-size: 13px;&quot;&gt;&lt;font style=&quot;font-size: 13px;&quot;&gt;预警监控&lt;/font&gt;&lt;/span&gt;&lt;/p&gt;" style="rounded=1;whiteSpace=wrap;html=1;fontSize=13;fontFamily=Verdana;" parent="1" vertex="1">
          <mxGeometry x="1230" y="254" width="130" height="40" as="geometry" />
        </mxCell>
        <mxCell id="ZADM2jKMoyXwHcdbe6bZ-3" value="&lt;p class=&quot;MsoNormal&quot; style=&quot;font-size: 13px;&quot;&gt;&lt;span style=&quot;font-size: 13px;&quot;&gt;&lt;font style=&quot;font-size: 13px;&quot;&gt;调度决策&lt;/font&gt;&lt;/span&gt;&lt;/p&gt;" style="rounded=1;whiteSpace=wrap;html=1;fontSize=13;fontFamily=Verdana;" parent="1" vertex="1">
          <mxGeometry x="1230" y="315.75" width="130" height="40" as="geometry" />
        </mxCell>
        <mxCell id="ZADM2jKMoyXwHcdbe6bZ-4" value="&lt;p class=&quot;MsoNormal&quot; style=&quot;font-size: 13px;&quot;&gt;&lt;span style=&quot;font-size: 13px;&quot;&gt;&lt;font style=&quot;font-size: 13px;&quot;&gt;OCR组件库&lt;/font&gt;&lt;/span&gt;&lt;/p&gt;" style="rounded=1;whiteSpace=wrap;html=1;fontSize=13;fontFamily=Verdana;" parent="1" vertex="1">
          <mxGeometry x="1232" y="378.75" width="130" height="40" as="geometry" />
        </mxCell>
        <mxCell id="ZADM2jKMoyXwHcdbe6bZ-5" value="&lt;p class=&quot;MsoNormal&quot; style=&quot;font-size: 13px;&quot;&gt;&lt;span style=&quot;font-size: 13px;&quot;&gt;&lt;font style=&quot;font-size: 13px;&quot;&gt;微信&lt;/font&gt;API组件库&lt;/span&gt;&lt;/p&gt;" style="rounded=1;whiteSpace=wrap;html=1;fontSize=13;fontFamily=Verdana;" parent="1" vertex="1">
          <mxGeometry x="1232" y="441.25" width="130" height="40" as="geometry" />
        </mxCell>
        <mxCell id="ZADM2jKMoyXwHcdbe6bZ-6" value="&lt;p class=&quot;MsoNormal&quot; style=&quot;font-size: 13px;&quot;&gt;&lt;span style=&quot;font-size: 13px;&quot;&gt;&lt;font style=&quot;font-size: 13px;&quot;&gt;地图&lt;/font&gt;API组件库&lt;/span&gt;&lt;/p&gt;" style="rounded=1;whiteSpace=wrap;html=1;fontSize=13;fontFamily=Verdana;" parent="1" vertex="1">
          <mxGeometry x="1234" y="504.25" width="130" height="40" as="geometry" />
        </mxCell>
        <mxCell id="ZADM2jKMoyXwHcdbe6bZ-7" value="&lt;p class=&quot;MsoNormal&quot; style=&quot;font-size: 13px;&quot;&gt;&lt;span style=&quot;font-size: 13px;&quot;&gt;&lt;font style=&quot;font-size: 13px;&quot;&gt;数据驾驶舱服务&lt;/font&gt;&lt;/span&gt;&lt;/p&gt;" style="rounded=1;whiteSpace=wrap;html=1;fontSize=13;fontFamily=Verdana;" parent="1" vertex="1">
          <mxGeometry x="1232" y="569" width="130" height="40" as="geometry" />
        </mxCell>
        <mxCell id="ZADM2jKMoyXwHcdbe6bZ-10" value="违章查询" style="rounded=1;whiteSpace=wrap;html=1;fontSize=13;fillColor=#dae8fc;strokeColor=#6c8ebf;gradientColor=#7ea6e0;" parent="1" vertex="1">
          <mxGeometry x="444.5" y="557.25" width="116" height="40" as="geometry" />
        </mxCell>
        <mxCell id="ZADM2jKMoyXwHcdbe6bZ-11" value="缴费服务" style="rounded=1;whiteSpace=wrap;html=1;fontSize=13;fillColor=#dae8fc;strokeColor=#6c8ebf;gradientColor=#7ea6e0;" parent="1" vertex="1">
          <mxGeometry x="444.5" y="618" width="116" height="40" as="geometry" />
        </mxCell>
        <mxCell id="dXGPN9Q9RY6aG2eSHOQV-1" value="&lt;span style=&quot;font-size: 16px&quot;&gt;资金管理&lt;/span&gt;" style="rounded=0;whiteSpace=wrap;html=1;fontSize=13;fillColor=#f8cecc;strokeColor=#b85450;" parent="1" vertex="1">
          <mxGeometry x="658" y="890" width="124" height="31" as="geometry" />
        </mxCell>
        <mxCell id="dXGPN9Q9RY6aG2eSHOQV-2" value="商户信息维护" style="rounded=1;whiteSpace=wrap;html=1;fontSize=13;" parent="1" vertex="1">
          <mxGeometry x="658" y="931" width="50" height="30" as="geometry" />
        </mxCell>
        <mxCell id="dXGPN9Q9RY6aG2eSHOQV-3" value="订单信息同步" style="rounded=1;whiteSpace=wrap;html=1;fontSize=13;" parent="1" vertex="1">
          <mxGeometry x="732" y="931" width="50" height="30" as="geometry" />
        </mxCell>
        <mxCell id="dXGPN9Q9RY6aG2eSHOQV-4" value="支付" style="rounded=1;whiteSpace=wrap;html=1;fontSize=13;" parent="1" vertex="1">
          <mxGeometry x="658" y="970" width="50" height="30" as="geometry" />
        </mxCell>
        <mxCell id="dXGPN9Q9RY6aG2eSHOQV-5" value="对账" style="rounded=1;whiteSpace=wrap;html=1;fontSize=13;" parent="1" vertex="1">
          <mxGeometry x="732" y="970" width="50" height="30" as="geometry" />
        </mxCell>
        <mxCell id="dXGPN9Q9RY6aG2eSHOQV-6" value="结算" style="rounded=1;whiteSpace=wrap;html=1;fontSize=13;" parent="1" vertex="1">
          <mxGeometry x="658" y="1010" width="50" height="30" as="geometry" />
        </mxCell>
        <mxCell id="dXGPN9Q9RY6aG2eSHOQV-7" value="退款" style="rounded=1;whiteSpace=wrap;html=1;fontSize=13;" parent="1" vertex="1">
          <mxGeometry x="732" y="1010" width="50" height="30" as="geometry" />
        </mxCell>
        <mxCell id="dXGPN9Q9RY6aG2eSHOQV-8" value="角色管理" style="rounded=1;whiteSpace=wrap;html=1;fontSize=13;" parent="1" vertex="1">
          <mxGeometry x="1152" y="931" width="50" height="30" as="geometry" />
        </mxCell>
        <mxCell id="dXGPN9Q9RY6aG2eSHOQV-9" value="权限管理" style="rounded=1;whiteSpace=wrap;html=1;fontSize=13;" parent="1" vertex="1">
          <mxGeometry x="1095" y="970" width="50" height="30" as="geometry" />
        </mxCell>
        <mxCell id="zjK6YM6E4vPAOyXwSc66-1" value="省市区" style="rounded=1;whiteSpace=wrap;html=1;fontSize=13;" vertex="1" parent="1">
          <mxGeometry x="218" y="371" width="130" height="40" as="geometry" />
        </mxCell>
      </root>
    </mxGraphModel>
  </diagram>
</mxfile>
